<?xml version="1.0" standalone="no"?>
<!DOCTYPE svg PUBLIC "-//W3C//DTD SVG 20010904//EN"
 "http://www.w3.org/TR/2001/REC-SVG-20010904/DTD/svg10.dtd">
<svg version="1.0" xmlns="http://www.w3.org/2000/svg"
 width="581.000000pt" height="416.000000pt" viewBox="0 0 581.000000 416.000000"
 preserveAspectRatio="xMidYMid meet">
<metadata>
Created by potrace 1.16, written by Peter Selinger 2001-2019
</metadata>
<g transform="translate(0.000000,416.000000) scale(0.100000,-0.100000)"
fill="#000000" stroke="none">
<path d="M5000 4007 c-170 -58 -284 -185 -326 -364 -32 -136 -5 -248 107 -443
76 -133 334 -547 354 -568 10 -11 42 35 172 245 274 441 302 498 311 637 5 89
-9 166 -44 243 -101 215 -354 325 -574 250z m241 -264 c77 -40 114 -102 114
-192 0 -125 -79 -212 -200 -219 -54 -4 -70 0 -114 23 -133 73 -155 252 -44
357 67 64 156 75 244 31z"/>
<path d="M5526 2876 l-100 -21 -133 -210 c-73 -115 -133 -213 -133 -218 0 -24
-27 11 -122 155 -57 86 -107 163 -113 171 -8 12 -75 1 -404 -62 -217 -42 -394
-80 -393 -85 0 -4 84 -81 187 -171 103 -90 187 -166 187 -170 0 -3 -42 -52
-94 -107 -51 -55 -94 -104 -96 -107 -1 -4 118 -13 264 -19 147 -6 270 -14 273
-17 3 -3 14 -124 24 -268 10 -144 21 -278 23 -297 l6 -34 120 127 c66 70 124
127 129 127 6 0 93 -75 195 -166 109 -98 186 -160 188 -152 2 7 11 137 20 288
10 151 23 367 31 480 36 521 46 698 43 736 l-3 40 -99 -20z"/>
<path d="M2411 1837 c2 -268 6 -487 9 -487 2 0 33 28 67 62 l63 63 263 -263
c144 -144 267 -262 272 -262 17 0 633 635 621 639 -6 3 -265 78 -576 167
l-565 161 -6 84 c-4 46 -5 87 -3 90 2 4 261 -67 576 -157 314 -90 573 -163
574 -161 5 4 -684 298 -1076 459 -107 44 -201 82 -209 85 -12 5 -13 -68 -10
-480z"/>
<path d="M2105 2270 c-99 -21 -273 -57 -386 -80 l-207 -43 -8 -66 c-10 -74 12
-62 -166 -96 -47 -10 -99 -25 -115 -35 -33 -21 -273 -225 -290 -248 -7 -8 -36
-87 -65 -174 l-53 -158 -215 -116 c-118 -64 -229 -126 -246 -139 l-30 -23 4
-119 4 -119 -68 -40 -69 -39 -23 -115 c-17 -89 -22 -143 -20 -235 l3 -120 109
-3 110 -3 47 -44 c58 -55 78 -60 209 -60 124 1 168 17 207 77 l26 38 202 0
c150 0 205 3 213 12 5 7 12 40 16 73 20 184 40 313 53 333 9 14 57 43 120 73
104 49 105 49 131 31 15 -10 40 -24 56 -32 34 -17 74 -54 98 -90 l16 -25 81
80 c45 44 81 82 81 86 0 3 -24 4 -53 1 l-54 -4 -107 86 c-60 47 -112 86 -116
86 -19 0 -559 -189 -600 -210 -25 -12 -61 -36 -81 -51 -20 -16 -39 -29 -41
-29 -10 0 60 333 73 345 13 13 551 256 596 269 11 4 26 12 31 19 6 7 29 90 51
185 23 96 48 188 57 205 26 54 232 227 326 274 46 23 86 42 91 43 4 0 7 -233
7 -517 l0 -518 110 110 110 110 0 527 0 528 -22 -1 c-13 0 -104 -18 -203 -39z
m-525 -585 c0 -11 -69 -276 -74 -282 -3 -4 -597 -25 -601 -21 -7 6 75 251 89
265 7 7 112 19 286 31 151 11 281 20 288 21 6 0 12 -6 12 -14z m-750 -642 c-1
-10 -20 -117 -43 -238 l-42 -220 -152 -3 c-138 -2 -152 -1 -157 15 -6 20 -36
366 -36 418 l0 34 143 4 c78 1 175 4 215 5 63 2 72 0 72 -15z m350 -327 c0 -8
-12 -42 -26 -75 l-27 -61 -123 0 c-68 0 -124 4 -124 9 0 5 18 25 40 44 27 25
62 43 112 57 40 12 84 25 98 30 38 13 50 12 50 -4z"/>
<path d="M4146 1876 l-67 -75 43 -5 c24 -3 142 -10 263 -16 121 -7 223 -15
227 -18 3 -4 16 -135 28 -292 11 -157 22 -289 23 -294 2 -4 35 26 75 69 l72
77 -6 71 c-3 40 -13 176 -22 302 l-17 230 -135 6 c-74 4 -198 10 -276 13
l-141 7 -67 -75z"/>
<path d="M3907 1628 l-66 -73 37 -7 c20 -3 140 -12 267 -18 126 -6 231 -13
233 -15 2 -2 13 -133 24 -292 12 -158 23 -290 25 -293 3 -3 37 29 75 70 l70
74 -7 101 c-4 55 -14 190 -23 300 l-17 200 -225 12 c-124 6 -248 11 -277 12
l-51 1 -65 -72z"/>
<path d="M1748 1664 c-3 -5 -20 -65 -37 -134 -18 -69 -35 -134 -38 -144 -5
-18 0 -19 142 -12 82 4 152 9 157 12 4 3 8 63 8 133 l0 129 -28 5 c-58 12
-199 19 -204 11z"/>
<path d="M3665 1380 c-82 -82 -79 -90 30 -90 89 0 439 -21 444 -26 3 -2 15
-133 27 -290 12 -157 24 -287 26 -289 2 -3 35 27 73 65 l68 69 -2 57 c-5 130
-39 536 -46 542 -7 7 -361 30 -480 31 l-71 1 -69 -70z"/>
<path d="M1995 763 c-303 -305 -551 -559 -553 -564 -2 -5 157 -9 385 -9 l388
0 167 167 167 167 31 -29 31 -29 194 194 c107 107 194 198 193 202 -4 9 -379
391 -422 428 l-32 28 -549 -555z"/>
<path d="M3333 1038 c-90 -90 -163 -168 -163 -173 0 -6 135 -147 299 -315
l299 -305 117 115 c64 63 138 140 164 170 l48 55 -18 245 c-10 135 -21 268
-24 296 l-6 51 -127 6 c-70 4 -194 9 -277 13 l-150 6 -162 -164z"/>
<path d="M3017 718 c-32 -35 -118 -124 -192 -198 l-134 -135 90 -97 91 -98
401 0 402 0 -295 295 c-162 162 -297 295 -301 295 -3 0 -31 -28 -62 -62z"/>
<path d="M1502 724 c-72 -37 -101 -115 -109 -294 l-5 -125 163 162 162 162
-27 35 c-52 69 -122 92 -184 60z"/>
</g>
</svg>
