<svg xmlns="http://www.w3.org/2000/svg" width="320" height="320" viewBox="0 0 320 320"><ellipse cx="160" cy="248" fill="#e5e9f5" rx="80" ry="14"/><rect width="140" height="100" x="90" y="140" fill="#3b82f6" rx="10"/><rect width="140" height="34" x="90" y="140" fill="#2563eb" rx="10"/><path fill="#2563eb" d="M90 164h140v10H90z"/><path stroke="#1e3a8a" stroke-width="4" d="M160 140v100m-70-66h140"/><path stroke="#93c5fd" stroke-linecap="round" stroke-width="6" d="m115 140 20 100m70-100-20 100"/><path fill="#f97316" d="M226 90c0 21-28 48-28 48s-28-27-28-48c0-15.464 12.536-28 28-28s28 12.536 28 28"/><circle cx="198" cy="90" r="12" fill="#fff"/><path fill="none" stroke="#f97316" stroke-linecap="round" stroke-width="3" d="M242 84c6 6 6 16 0 22" opacity=".6"/><path fill="none" stroke="#f97316" stroke-linecap="round" stroke-width="3" d="M252 76c12 12 12 28 0 40" opacity=".4"/></svg>