<svg width="320" height="320" viewBox="0 0 320 320" xmlns="http://www.w3.org/2000/svg">

  <ellipse cx="160" cy="252" rx="85" ry="12" fill="#e5e9f5"/>

  <!-- Monitor -->
  <rect x="70" y="90" width="180" height="120" rx="12" fill="#ffffff" stroke="#1e3a8a" stroke-width="4"/>
  <rect x="140" y="210" width="40" height="24" fill="#1e3a8a"/>
  <rect x="120" y="232" width="80" height="10" rx="5" fill="#1e3a8a"/>

  <!-- Contenido de la pantalla: mapa con ruta -->
  <rect x="86" y="106" width="148" height="88" rx="6" fill="#dbeafe"/>
  <path d="M100 170C120 150 140 180 165 150C185 128 205 160 220 140" stroke="#2563eb" stroke-width="4" fill="none" stroke-linecap="round" stroke-dasharray="2 8"/>
  <circle cx="100" cy="170" r="6" fill="#3b82f6"/>
  <circle cx="220" cy="140" r="6" fill="#f97316"/>

  <!-- Barras de datos -->
  <rect x="90" y="150" width="8" height="30" fill="#93c5fd" opacity="0.7"/>

  <!-- Iconos flotantes de notificacion -->
  <g>
    <circle cx="245" cy="95" r="16" fill="#f97316"/>
    <rect x="242" y="87" width="6" height="12" rx="3" fill="#ffffff"/>
    <circle cx="245" cy="103" r="1.5" fill="#ffffff"/>
  </g>
</svg>
