<svg width="320" height="320" viewBox="0 0 320 320" xmlns="http://www.w3.org/2000/svg">

  <ellipse cx="160" cy="256" rx="110" ry="12" fill="#e5e9f5"/>

  <!-- Camion trasero (mas pequeno, atras) -->
  <g opacity="0.55" transform="translate(30,120) scale(0.8)">
    <rect x="0" y="20" width="80" height="50" rx="6" fill="#3b82f6"/>
    <rect x="80" y="34" width="30" height="36" rx="4" fill="#1e3a8a"/>
    <circle cx="20" cy="76" r="10" fill="#0f172a"/>
    <circle cx="95" cy="76" r="10" fill="#0f172a"/>
  </g>

  <!-- Camion trasero derecho -->
  <g opacity="0.55" transform="translate(210,120) scale(0.8)">
    <rect x="0" y="20" width="80" height="50" rx="6" fill="#3b82f6"/>
    <rect x="80" y="34" width="30" height="36" rx="4" fill="#1e3a8a"/>
    <circle cx="20" cy="76" r="10" fill="#0f172a"/>
    <circle cx="95" cy="76" r="10" fill="#0f172a"/>
  </g>

  <!-- Camion principal (frente, centro) -->
  <g transform="translate(95,150)">
    <rect x="0" y="20" width="100" height="60" rx="8" fill="#2563eb"/>
    <rect x="100" y="36" width="38" height="44" rx="6" fill="#1e3a8a"/>
    <rect x="110" y="46" width="18" height="16" rx="3" fill="#93c5fd"/>
    <circle cx="26" cy="88" r="13" fill="#0f172a"/>
    <circle cx="26" cy="88" r="5" fill="#e5e7eb"/>
    <circle cx="112" cy="88" r="13" fill="#0f172a"/>
    <circle cx="112" cy="88" r="5" fill="#e5e7eb"/>
  </g>

  <!-- Marca de verificacion (flota controlada) -->
  <g>
    <circle cx="240" cy="80" r="18" fill="#f97316"/>
    <path d="M232 80L238 86L250 72" stroke="#ffffff" stroke-width="4" fill="none" stroke-linecap="round" stroke-linejoin="round"/>
  </g>
</svg>
